G04 #@! TF.FileFunction,Copper,L2,Bot,Signal*
%FSLAX46Y46*%
G04 Gerber Fmt 4.6, Leading zero omitted, Abs format (unit mm)*
G04 Created by KiCad (PCBNEW 4.0.6) date Wednesday, December 20, 2017 'PMt' 01:59:56 PM*
%MOMM*%
%LPD*%
G01*
G04 APERTURE LIST*
%ADD10C,0.100000*%
%ADD11C,1.879600*%
%ADD12C,0.600000*%
%ADD13C,0.250000*%
%ADD14C,0.254000*%
G04 APERTURE END LIST*
D10*
D11*
X165100000Y-114300000D03*
X162560000Y-114300000D03*
X160020000Y-114300000D03*
X157480000Y-114300000D03*
X154940000Y-114300000D03*
X152400000Y-114300000D03*
X149860000Y-101600000D03*
X147320000Y-101600000D03*
X144780000Y-101600000D03*
X157480000Y-101600000D03*
X154940000Y-101600000D03*
X152400000Y-101600000D03*
X165100000Y-101600000D03*
X162560000Y-101600000D03*
X160020000Y-101600000D03*
X172720000Y-101600000D03*
X170180000Y-101600000D03*
X167640000Y-101600000D03*
D12*
X160655000Y-107950000D03*
X168275000Y-107950000D03*
X148590000Y-105410000D03*
X147320000Y-113665000D03*
X170815000Y-113030000D03*
X163830000Y-112395000D03*
X158750000Y-112395000D03*
X147320000Y-111760000D03*
X149225000Y-113030000D03*
D13*
X167640000Y-107315000D02*
X166370000Y-107315000D01*
X168275000Y-107950000D02*
X167640000Y-107315000D01*
X147955000Y-104775000D02*
X147320000Y-104775000D01*
X148590000Y-105410000D02*
X147955000Y-104775000D01*
X148590000Y-107950000D02*
X150495000Y-106045000D01*
X148590000Y-112395000D02*
X148590000Y-107950000D01*
X149225000Y-113030000D02*
X148590000Y-112395000D01*
X172720000Y-101600000D02*
X172720000Y-105410000D01*
X172085000Y-106045000D02*
X165100000Y-106045000D01*
X172720000Y-105410000D02*
X172085000Y-106045000D01*
X165100000Y-101600000D02*
X165100000Y-106045000D01*
X165100000Y-106045000D02*
X156845000Y-106045000D01*
X157480000Y-101600000D02*
X157480000Y-105410000D01*
X156845000Y-106045000D02*
X150495000Y-106045000D01*
X157480000Y-105410000D02*
X156845000Y-106045000D01*
X150495000Y-106045000D02*
X150495000Y-102235000D01*
X150495000Y-102235000D02*
X149860000Y-101600000D01*
D14*
G36*
X143850637Y-100491032D02*
X144780000Y-101420395D01*
X145709363Y-100491032D01*
X145679228Y-100405000D01*
X146288038Y-100405000D01*
X145987399Y-100705115D01*
X145888968Y-100670637D01*
X144959605Y-101600000D01*
X145888968Y-102529363D01*
X145987964Y-102494687D01*
X146426783Y-102934272D01*
X147005379Y-103174526D01*
X147631873Y-103175073D01*
X148210887Y-102935829D01*
X148590273Y-102557104D01*
X148966783Y-102934272D01*
X149545379Y-103174526D01*
X149735000Y-103174692D01*
X149735000Y-105730198D01*
X148052599Y-107412599D01*
X147887852Y-107659161D01*
X147830000Y-107950000D01*
X147830000Y-112395000D01*
X147887852Y-112685839D01*
X148052599Y-112932401D01*
X148289878Y-113169680D01*
X148289838Y-113215167D01*
X148431883Y-113558943D01*
X148694673Y-113822192D01*
X149038201Y-113964838D01*
X149410167Y-113965162D01*
X149753943Y-113823117D01*
X150017192Y-113560327D01*
X150159838Y-113216799D01*
X150159860Y-113191032D01*
X151470637Y-113191032D01*
X152400000Y-114120395D01*
X153329363Y-113191032D01*
X153238077Y-112930420D01*
X152650167Y-112713955D01*
X152024172Y-112738951D01*
X151561923Y-112930420D01*
X151470637Y-113191032D01*
X150159860Y-113191032D01*
X150160162Y-112844833D01*
X150018117Y-112501057D01*
X149755327Y-112237808D01*
X149411799Y-112095162D01*
X149364923Y-112095121D01*
X149350000Y-112080198D01*
X149350000Y-108264802D01*
X150809802Y-106805000D01*
X172085000Y-106805000D01*
X172375839Y-106747148D01*
X172622401Y-106582401D01*
X173257401Y-105947401D01*
X173422148Y-105700839D01*
X173480000Y-105410000D01*
X173480000Y-102989910D01*
X173610887Y-102935829D01*
X173915000Y-102632246D01*
X173915000Y-115495000D01*
X166131962Y-115495000D01*
X166434272Y-115193217D01*
X166674526Y-114614621D01*
X166675073Y-113988127D01*
X166435829Y-113409113D01*
X165993217Y-112965728D01*
X165414621Y-112725474D01*
X164788127Y-112724927D01*
X164209113Y-112964171D01*
X163829727Y-113342896D01*
X163453217Y-112965728D01*
X162874621Y-112725474D01*
X162248127Y-112724927D01*
X161669113Y-112964171D01*
X161289727Y-113342896D01*
X160913217Y-112965728D01*
X160334621Y-112725474D01*
X159708127Y-112724927D01*
X159129113Y-112964171D01*
X158749727Y-113342896D01*
X158373217Y-112965728D01*
X157794621Y-112725474D01*
X157168127Y-112724927D01*
X156589113Y-112964171D01*
X156209727Y-113342896D01*
X155833217Y-112965728D01*
X155254621Y-112725474D01*
X154628127Y-112724927D01*
X154049113Y-112964171D01*
X153607399Y-113405115D01*
X153508968Y-113370637D01*
X152579605Y-114300000D01*
X153508968Y-115229363D01*
X153607964Y-115194687D01*
X153907754Y-115495000D01*
X153299228Y-115495000D01*
X153329363Y-115408968D01*
X152400000Y-114479605D01*
X151470637Y-115408968D01*
X151500772Y-115495000D01*
X143585000Y-115495000D01*
X143585000Y-114049833D01*
X150813955Y-114049833D01*
X150838951Y-114675828D01*
X151030420Y-115138077D01*
X151291032Y-115229363D01*
X152220395Y-114300000D01*
X151291032Y-113370637D01*
X151030420Y-113461923D01*
X150813955Y-114049833D01*
X143585000Y-114049833D01*
X143585000Y-102708968D01*
X143850637Y-102708968D01*
X143941923Y-102969580D01*
X144529833Y-103186045D01*
X145155828Y-103161049D01*
X145618077Y-102969580D01*
X145709363Y-102708968D01*
X144780000Y-101779605D01*
X143850637Y-102708968D01*
X143585000Y-102708968D01*
X143585000Y-102499228D01*
X143671032Y-102529363D01*
X144600395Y-101600000D01*
X143671032Y-100670637D01*
X143585000Y-100700772D01*
X143585000Y-100405000D01*
X143880772Y-100405000D01*
X143850637Y-100491032D01*
X143850637Y-100491032D01*
G37*
X143850637Y-100491032D02*
X144780000Y-101420395D01*
X145709363Y-100491032D01*
X145679228Y-100405000D01*
X146288038Y-100405000D01*
X145987399Y-100705115D01*
X145888968Y-100670637D01*
X144959605Y-101600000D01*
X145888968Y-102529363D01*
X145987964Y-102494687D01*
X146426783Y-102934272D01*
X147005379Y-103174526D01*
X147631873Y-103175073D01*
X148210887Y-102935829D01*
X148590273Y-102557104D01*
X148966783Y-102934272D01*
X149545379Y-103174526D01*
X149735000Y-103174692D01*
X149735000Y-105730198D01*
X148052599Y-107412599D01*
X147887852Y-107659161D01*
X147830000Y-107950000D01*
X147830000Y-112395000D01*
X147887852Y-112685839D01*
X148052599Y-112932401D01*
X148289878Y-113169680D01*
X148289838Y-113215167D01*
X148431883Y-113558943D01*
X148694673Y-113822192D01*
X149038201Y-113964838D01*
X149410167Y-113965162D01*
X149753943Y-113823117D01*
X150017192Y-113560327D01*
X150159838Y-113216799D01*
X150159860Y-113191032D01*
X151470637Y-113191032D01*
X152400000Y-114120395D01*
X153329363Y-113191032D01*
X153238077Y-112930420D01*
X152650167Y-112713955D01*
X152024172Y-112738951D01*
X151561923Y-112930420D01*
X151470637Y-113191032D01*
X150159860Y-113191032D01*
X150160162Y-112844833D01*
X150018117Y-112501057D01*
X149755327Y-112237808D01*
X149411799Y-112095162D01*
X149364923Y-112095121D01*
X149350000Y-112080198D01*
X149350000Y-108264802D01*
X150809802Y-106805000D01*
X172085000Y-106805000D01*
X172375839Y-106747148D01*
X172622401Y-106582401D01*
X173257401Y-105947401D01*
X173422148Y-105700839D01*
X173480000Y-105410000D01*
X173480000Y-102989910D01*
X173610887Y-102935829D01*
X173915000Y-102632246D01*
X173915000Y-115495000D01*
X166131962Y-115495000D01*
X166434272Y-115193217D01*
X166674526Y-114614621D01*
X166675073Y-113988127D01*
X166435829Y-113409113D01*
X165993217Y-112965728D01*
X165414621Y-112725474D01*
X164788127Y-112724927D01*
X164209113Y-112964171D01*
X163829727Y-113342896D01*
X163453217Y-112965728D01*
X162874621Y-112725474D01*
X162248127Y-112724927D01*
X161669113Y-112964171D01*
X161289727Y-113342896D01*
X160913217Y-112965728D01*
X160334621Y-112725474D01*
X159708127Y-112724927D01*
X159129113Y-112964171D01*
X158749727Y-113342896D01*
X158373217Y-112965728D01*
X157794621Y-112725474D01*
X157168127Y-112724927D01*
X156589113Y-112964171D01*
X156209727Y-113342896D01*
X155833217Y-112965728D01*
X155254621Y-112725474D01*
X154628127Y-112724927D01*
X154049113Y-112964171D01*
X153607399Y-113405115D01*
X153508968Y-113370637D01*
X152579605Y-114300000D01*
X153508968Y-115229363D01*
X153607964Y-115194687D01*
X153907754Y-115495000D01*
X153299228Y-115495000D01*
X153329363Y-115408968D01*
X152400000Y-114479605D01*
X151470637Y-115408968D01*
X151500772Y-115495000D01*
X143585000Y-115495000D01*
X143585000Y-114049833D01*
X150813955Y-114049833D01*
X150838951Y-114675828D01*
X151030420Y-115138077D01*
X151291032Y-115229363D01*
X152220395Y-114300000D01*
X151291032Y-113370637D01*
X151030420Y-113461923D01*
X150813955Y-114049833D01*
X143585000Y-114049833D01*
X143585000Y-102708968D01*
X143850637Y-102708968D01*
X143941923Y-102969580D01*
X144529833Y-103186045D01*
X145155828Y-103161049D01*
X145618077Y-102969580D01*
X145709363Y-102708968D01*
X144780000Y-101779605D01*
X143850637Y-102708968D01*
X143585000Y-102708968D01*
X143585000Y-102499228D01*
X143671032Y-102529363D01*
X144600395Y-101600000D01*
X143671032Y-100670637D01*
X143585000Y-100700772D01*
X143585000Y-100405000D01*
X143880772Y-100405000D01*
X143850637Y-100491032D01*
G36*
X159090637Y-100491032D02*
X160020000Y-101420395D01*
X160949363Y-100491032D01*
X160919228Y-100405000D01*
X161528038Y-100405000D01*
X161227399Y-100705115D01*
X161128968Y-100670637D01*
X160199605Y-101600000D01*
X161128968Y-102529363D01*
X161227964Y-102494687D01*
X161666783Y-102934272D01*
X162245379Y-103174526D01*
X162871873Y-103175073D01*
X163450887Y-102935829D01*
X163830273Y-102557104D01*
X164206783Y-102934272D01*
X164340000Y-102989589D01*
X164340000Y-105285000D01*
X158240000Y-105285000D01*
X158240000Y-102989910D01*
X158370887Y-102935829D01*
X158598144Y-102708968D01*
X159090637Y-102708968D01*
X159181923Y-102969580D01*
X159769833Y-103186045D01*
X160395828Y-103161049D01*
X160858077Y-102969580D01*
X160949363Y-102708968D01*
X160020000Y-101779605D01*
X159090637Y-102708968D01*
X158598144Y-102708968D01*
X158812601Y-102494885D01*
X158911032Y-102529363D01*
X159840395Y-101600000D01*
X158911032Y-100670637D01*
X158812036Y-100705313D01*
X158512246Y-100405000D01*
X159120772Y-100405000D01*
X159090637Y-100491032D01*
X159090637Y-100491032D01*
G37*
X159090637Y-100491032D02*
X160020000Y-101420395D01*
X160949363Y-100491032D01*
X160919228Y-100405000D01*
X161528038Y-100405000D01*
X161227399Y-100705115D01*
X161128968Y-100670637D01*
X160199605Y-101600000D01*
X161128968Y-102529363D01*
X161227964Y-102494687D01*
X161666783Y-102934272D01*
X162245379Y-103174526D01*
X162871873Y-103175073D01*
X163450887Y-102935829D01*
X163830273Y-102557104D01*
X164206783Y-102934272D01*
X164340000Y-102989589D01*
X164340000Y-105285000D01*
X158240000Y-105285000D01*
X158240000Y-102989910D01*
X158370887Y-102935829D01*
X158598144Y-102708968D01*
X159090637Y-102708968D01*
X159181923Y-102969580D01*
X159769833Y-103186045D01*
X160395828Y-103161049D01*
X160858077Y-102969580D01*
X160949363Y-102708968D01*
X160020000Y-101779605D01*
X159090637Y-102708968D01*
X158598144Y-102708968D01*
X158812601Y-102494885D01*
X158911032Y-102529363D01*
X159840395Y-101600000D01*
X158911032Y-100670637D01*
X158812036Y-100705313D01*
X158512246Y-100405000D01*
X159120772Y-100405000D01*
X159090637Y-100491032D01*
G36*
X166710637Y-100491032D02*
X167640000Y-101420395D01*
X168569363Y-100491032D01*
X168539228Y-100405000D01*
X169148038Y-100405000D01*
X168847399Y-100705115D01*
X168748968Y-100670637D01*
X167819605Y-101600000D01*
X168748968Y-102529363D01*
X168847964Y-102494687D01*
X169286783Y-102934272D01*
X169865379Y-103174526D01*
X170491873Y-103175073D01*
X171070887Y-102935829D01*
X171450273Y-102557104D01*
X171826783Y-102934272D01*
X171960000Y-102989589D01*
X171960000Y-105095198D01*
X171770198Y-105285000D01*
X165860000Y-105285000D01*
X165860000Y-102989910D01*
X165990887Y-102935829D01*
X166218144Y-102708968D01*
X166710637Y-102708968D01*
X166801923Y-102969580D01*
X167389833Y-103186045D01*
X168015828Y-103161049D01*
X168478077Y-102969580D01*
X168569363Y-102708968D01*
X167640000Y-101779605D01*
X166710637Y-102708968D01*
X166218144Y-102708968D01*
X166432601Y-102494885D01*
X166531032Y-102529363D01*
X167460395Y-101600000D01*
X166531032Y-100670637D01*
X166432036Y-100705313D01*
X166132246Y-100405000D01*
X166740772Y-100405000D01*
X166710637Y-100491032D01*
X166710637Y-100491032D01*
G37*
X166710637Y-100491032D02*
X167640000Y-101420395D01*
X168569363Y-100491032D01*
X168539228Y-100405000D01*
X169148038Y-100405000D01*
X168847399Y-100705115D01*
X168748968Y-100670637D01*
X167819605Y-101600000D01*
X168748968Y-102529363D01*
X168847964Y-102494687D01*
X169286783Y-102934272D01*
X169865379Y-103174526D01*
X170491873Y-103175073D01*
X171070887Y-102935829D01*
X171450273Y-102557104D01*
X171826783Y-102934272D01*
X171960000Y-102989589D01*
X171960000Y-105095198D01*
X171770198Y-105285000D01*
X165860000Y-105285000D01*
X165860000Y-102989910D01*
X165990887Y-102935829D01*
X166218144Y-102708968D01*
X166710637Y-102708968D01*
X166801923Y-102969580D01*
X167389833Y-103186045D01*
X168015828Y-103161049D01*
X168478077Y-102969580D01*
X168569363Y-102708968D01*
X167640000Y-101779605D01*
X166710637Y-102708968D01*
X166218144Y-102708968D01*
X166432601Y-102494885D01*
X166531032Y-102529363D01*
X167460395Y-101600000D01*
X166531032Y-100670637D01*
X166432036Y-100705313D01*
X166132246Y-100405000D01*
X166740772Y-100405000D01*
X166710637Y-100491032D01*
G36*
X151470637Y-100491032D02*
X152400000Y-101420395D01*
X153329363Y-100491032D01*
X153299228Y-100405000D01*
X153908038Y-100405000D01*
X153607399Y-100705115D01*
X153508968Y-100670637D01*
X152579605Y-101600000D01*
X153508968Y-102529363D01*
X153607964Y-102494687D01*
X154046783Y-102934272D01*
X154625379Y-103174526D01*
X155251873Y-103175073D01*
X155830887Y-102935829D01*
X156210273Y-102557104D01*
X156586783Y-102934272D01*
X156720000Y-102989589D01*
X156720000Y-105095198D01*
X156530198Y-105285000D01*
X151255000Y-105285000D01*
X151255000Y-102708968D01*
X151470637Y-102708968D01*
X151561923Y-102969580D01*
X152149833Y-103186045D01*
X152775828Y-103161049D01*
X153238077Y-102969580D01*
X153329363Y-102708968D01*
X152400000Y-101779605D01*
X151470637Y-102708968D01*
X151255000Y-102708968D01*
X151255000Y-102516742D01*
X151291032Y-102529363D01*
X152220395Y-101600000D01*
X151291032Y-100670637D01*
X151192036Y-100705313D01*
X150892246Y-100405000D01*
X151500772Y-100405000D01*
X151470637Y-100491032D01*
X151470637Y-100491032D01*
G37*
X151470637Y-100491032D02*
X152400000Y-101420395D01*
X153329363Y-100491032D01*
X153299228Y-100405000D01*
X153908038Y-100405000D01*
X153607399Y-100705115D01*
X153508968Y-100670637D01*
X152579605Y-101600000D01*
X153508968Y-102529363D01*
X153607964Y-102494687D01*
X154046783Y-102934272D01*
X154625379Y-103174526D01*
X155251873Y-103175073D01*
X155830887Y-102935829D01*
X156210273Y-102557104D01*
X156586783Y-102934272D01*
X156720000Y-102989589D01*
X156720000Y-105095198D01*
X156530198Y-105285000D01*
X151255000Y-105285000D01*
X151255000Y-102708968D01*
X151470637Y-102708968D01*
X151561923Y-102969580D01*
X152149833Y-103186045D01*
X152775828Y-103161049D01*
X153238077Y-102969580D01*
X153329363Y-102708968D01*
X152400000Y-101779605D01*
X151470637Y-102708968D01*
X151255000Y-102708968D01*
X151255000Y-102516742D01*
X151291032Y-102529363D01*
X152220395Y-101600000D01*
X151291032Y-100670637D01*
X151192036Y-100705313D01*
X150892246Y-100405000D01*
X151500772Y-100405000D01*
X151470637Y-100491032D01*
M02*
