M48
INCH,TZ
T1C0.016
T2C0.040
%
G90
G05
T1
X58000Y-44000
X58000Y-44750
X58500Y-41500
X58750Y-44500
X62500Y-44250
X63250Y-42500
X64500Y-44250
X66250Y-42500
X67250Y-44500
T2
X57000Y-40000
X58000Y-40000
X59000Y-40000
X60000Y-40000
X60000Y-45000
X61000Y-40000
X61000Y-45000
X62000Y-40000
X62000Y-45000
X63000Y-40000
X63000Y-45000
X64000Y-40000
X64000Y-45000
X65000Y-40000
X65000Y-45000
X66000Y-40000
X67000Y-40000
X68000Y-40000
T0
M30
