G04 #@! TF.FileFunction,Legend,Top*
%FSLAX46Y46*%
G04 Gerber Fmt 4.6, Leading zero omitted, Abs format (unit mm)*
G04 Created by KiCad (PCBNEW 4.0.6) date Wednesday, December 20, 2017 'PMt' 01:59:56 PM*
%MOMM*%
%LPD*%
G01*
G04 APERTURE LIST*
%ADD10C,0.100000*%
%ADD11C,0.120000*%
%ADD12C,0.203200*%
%ADD13C,0.150000*%
%ADD14C,0.127000*%
G04 APERTURE END LIST*
D10*
D11*
X150075000Y-110355000D02*
X150075000Y-109355000D01*
X148375000Y-109355000D02*
X148375000Y-110355000D01*
X158965000Y-110355000D02*
X158965000Y-109355000D01*
X157265000Y-109355000D02*
X157265000Y-110355000D01*
X163410000Y-110355000D02*
X163410000Y-109355000D01*
X161710000Y-109355000D02*
X161710000Y-110355000D01*
X170395000Y-110355000D02*
X170395000Y-109355000D01*
X168695000Y-109355000D02*
X168695000Y-110355000D01*
D12*
X153670000Y-114935000D02*
X153035000Y-115570000D01*
X153035000Y-115570000D02*
X151765000Y-115570000D01*
X151765000Y-115570000D02*
X151130000Y-114935000D01*
X151130000Y-113665000D02*
X151765000Y-113030000D01*
X151765000Y-113030000D02*
X153035000Y-113030000D01*
X153035000Y-113030000D02*
X153670000Y-113665000D01*
X158115000Y-115570000D02*
X156845000Y-115570000D01*
X156845000Y-115570000D02*
X156210000Y-114935000D01*
X156210000Y-113665000D02*
X156845000Y-113030000D01*
X156210000Y-114935000D02*
X155575000Y-115570000D01*
X155575000Y-115570000D02*
X154305000Y-115570000D01*
X154305000Y-115570000D02*
X153670000Y-114935000D01*
X153670000Y-113665000D02*
X154305000Y-113030000D01*
X154305000Y-113030000D02*
X155575000Y-113030000D01*
X155575000Y-113030000D02*
X156210000Y-113665000D01*
X161290000Y-114935000D02*
X160655000Y-115570000D01*
X160655000Y-115570000D02*
X159385000Y-115570000D01*
X159385000Y-115570000D02*
X158750000Y-114935000D01*
X158750000Y-113665000D02*
X159385000Y-113030000D01*
X159385000Y-113030000D02*
X160655000Y-113030000D01*
X160655000Y-113030000D02*
X161290000Y-113665000D01*
X158115000Y-115570000D02*
X158750000Y-114935000D01*
X158750000Y-113665000D02*
X158115000Y-113030000D01*
X156845000Y-113030000D02*
X158115000Y-113030000D01*
X165735000Y-115570000D02*
X164465000Y-115570000D01*
X164465000Y-115570000D02*
X163830000Y-114935000D01*
X163830000Y-113665000D02*
X164465000Y-113030000D01*
X163830000Y-114935000D02*
X163195000Y-115570000D01*
X163195000Y-115570000D02*
X161925000Y-115570000D01*
X161925000Y-115570000D02*
X161290000Y-114935000D01*
X161290000Y-113665000D02*
X161925000Y-113030000D01*
X161925000Y-113030000D02*
X163195000Y-113030000D01*
X163195000Y-113030000D02*
X163830000Y-113665000D01*
X166370000Y-114935000D02*
X166370000Y-113665000D01*
X165735000Y-115570000D02*
X166370000Y-114935000D01*
X166370000Y-113665000D02*
X165735000Y-113030000D01*
X164465000Y-113030000D02*
X165735000Y-113030000D01*
X151130000Y-114935000D02*
X151130000Y-113665000D01*
X146050000Y-102235000D02*
X145415000Y-102870000D01*
X145415000Y-102870000D02*
X144145000Y-102870000D01*
X144145000Y-102870000D02*
X143510000Y-102235000D01*
X143510000Y-100965000D02*
X144145000Y-100330000D01*
X144145000Y-100330000D02*
X145415000Y-100330000D01*
X145415000Y-100330000D02*
X146050000Y-100965000D01*
X150495000Y-102870000D02*
X149225000Y-102870000D01*
X149225000Y-102870000D02*
X148590000Y-102235000D01*
X148590000Y-100965000D02*
X149225000Y-100330000D01*
X148590000Y-102235000D02*
X147955000Y-102870000D01*
X147955000Y-102870000D02*
X146685000Y-102870000D01*
X146685000Y-102870000D02*
X146050000Y-102235000D01*
X146050000Y-100965000D02*
X146685000Y-100330000D01*
X146685000Y-100330000D02*
X147955000Y-100330000D01*
X147955000Y-100330000D02*
X148590000Y-100965000D01*
X151130000Y-102235000D02*
X151130000Y-100965000D01*
X150495000Y-102870000D02*
X151130000Y-102235000D01*
X151130000Y-100965000D02*
X150495000Y-100330000D01*
X149225000Y-100330000D02*
X150495000Y-100330000D01*
X143510000Y-102235000D02*
X143510000Y-100965000D01*
X153670000Y-102235000D02*
X153035000Y-102870000D01*
X153035000Y-102870000D02*
X151765000Y-102870000D01*
X151765000Y-102870000D02*
X151130000Y-102235000D01*
X151130000Y-100965000D02*
X151765000Y-100330000D01*
X151765000Y-100330000D02*
X153035000Y-100330000D01*
X153035000Y-100330000D02*
X153670000Y-100965000D01*
X158115000Y-102870000D02*
X156845000Y-102870000D01*
X156845000Y-102870000D02*
X156210000Y-102235000D01*
X156210000Y-100965000D02*
X156845000Y-100330000D01*
X156210000Y-102235000D02*
X155575000Y-102870000D01*
X155575000Y-102870000D02*
X154305000Y-102870000D01*
X154305000Y-102870000D02*
X153670000Y-102235000D01*
X153670000Y-100965000D02*
X154305000Y-100330000D01*
X154305000Y-100330000D02*
X155575000Y-100330000D01*
X155575000Y-100330000D02*
X156210000Y-100965000D01*
X158750000Y-102235000D02*
X158750000Y-100965000D01*
X158115000Y-102870000D02*
X158750000Y-102235000D01*
X158750000Y-100965000D02*
X158115000Y-100330000D01*
X156845000Y-100330000D02*
X158115000Y-100330000D01*
X151130000Y-102235000D02*
X151130000Y-100965000D01*
X161290000Y-102235000D02*
X160655000Y-102870000D01*
X160655000Y-102870000D02*
X159385000Y-102870000D01*
X159385000Y-102870000D02*
X158750000Y-102235000D01*
X158750000Y-100965000D02*
X159385000Y-100330000D01*
X159385000Y-100330000D02*
X160655000Y-100330000D01*
X160655000Y-100330000D02*
X161290000Y-100965000D01*
X165735000Y-102870000D02*
X164465000Y-102870000D01*
X164465000Y-102870000D02*
X163830000Y-102235000D01*
X163830000Y-100965000D02*
X164465000Y-100330000D01*
X163830000Y-102235000D02*
X163195000Y-102870000D01*
X163195000Y-102870000D02*
X161925000Y-102870000D01*
X161925000Y-102870000D02*
X161290000Y-102235000D01*
X161290000Y-100965000D02*
X161925000Y-100330000D01*
X161925000Y-100330000D02*
X163195000Y-100330000D01*
X163195000Y-100330000D02*
X163830000Y-100965000D01*
X166370000Y-102235000D02*
X166370000Y-100965000D01*
X165735000Y-102870000D02*
X166370000Y-102235000D01*
X166370000Y-100965000D02*
X165735000Y-100330000D01*
X164465000Y-100330000D02*
X165735000Y-100330000D01*
X158750000Y-102235000D02*
X158750000Y-100965000D01*
X168910000Y-102235000D02*
X168275000Y-102870000D01*
X168275000Y-102870000D02*
X167005000Y-102870000D01*
X167005000Y-102870000D02*
X166370000Y-102235000D01*
X166370000Y-100965000D02*
X167005000Y-100330000D01*
X167005000Y-100330000D02*
X168275000Y-100330000D01*
X168275000Y-100330000D02*
X168910000Y-100965000D01*
X173355000Y-102870000D02*
X172085000Y-102870000D01*
X172085000Y-102870000D02*
X171450000Y-102235000D01*
X171450000Y-100965000D02*
X172085000Y-100330000D01*
X171450000Y-102235000D02*
X170815000Y-102870000D01*
X170815000Y-102870000D02*
X169545000Y-102870000D01*
X169545000Y-102870000D02*
X168910000Y-102235000D01*
X168910000Y-100965000D02*
X169545000Y-100330000D01*
X169545000Y-100330000D02*
X170815000Y-100330000D01*
X170815000Y-100330000D02*
X171450000Y-100965000D01*
X173990000Y-102235000D02*
X173990000Y-100965000D01*
X173355000Y-102870000D02*
X173990000Y-102235000D01*
X173990000Y-100965000D02*
X173355000Y-100330000D01*
X172085000Y-100330000D02*
X173355000Y-100330000D01*
X166370000Y-102235000D02*
X166370000Y-100965000D01*
D11*
X144535000Y-106645000D02*
X144535000Y-105445000D01*
X146295000Y-105445000D02*
X146295000Y-106645000D01*
X144535000Y-110455000D02*
X144535000Y-109255000D01*
X146295000Y-109255000D02*
X146295000Y-110455000D01*
X153425000Y-106645000D02*
X153425000Y-105445000D01*
X155185000Y-105445000D02*
X155185000Y-106645000D01*
X153425000Y-110455000D02*
X153425000Y-109255000D01*
X155185000Y-109255000D02*
X155185000Y-110455000D01*
X161680000Y-106645000D02*
X161680000Y-105445000D01*
X163440000Y-105445000D02*
X163440000Y-106645000D01*
X165490000Y-110455000D02*
X165490000Y-109255000D01*
X167250000Y-109255000D02*
X167250000Y-110455000D01*
X169300000Y-106010000D02*
X169300000Y-104810000D01*
X171060000Y-104810000D02*
X171060000Y-106010000D01*
X171205000Y-110455000D02*
X171205000Y-109255000D01*
X172965000Y-109255000D02*
X172965000Y-110455000D01*
D13*
X151082143Y-110021666D02*
X151129762Y-110069285D01*
X151177381Y-110212142D01*
X151177381Y-110307380D01*
X151129762Y-110450238D01*
X151034524Y-110545476D01*
X150939286Y-110593095D01*
X150748810Y-110640714D01*
X150605952Y-110640714D01*
X150415476Y-110593095D01*
X150320238Y-110545476D01*
X150225000Y-110450238D01*
X150177381Y-110307380D01*
X150177381Y-110212142D01*
X150225000Y-110069285D01*
X150272619Y-110021666D01*
X151177381Y-109069285D02*
X151177381Y-109640714D01*
X151177381Y-109355000D02*
X150177381Y-109355000D01*
X150320238Y-109450238D01*
X150415476Y-109545476D01*
X150463095Y-109640714D01*
X159972143Y-110021666D02*
X160019762Y-110069285D01*
X160067381Y-110212142D01*
X160067381Y-110307380D01*
X160019762Y-110450238D01*
X159924524Y-110545476D01*
X159829286Y-110593095D01*
X159638810Y-110640714D01*
X159495952Y-110640714D01*
X159305476Y-110593095D01*
X159210238Y-110545476D01*
X159115000Y-110450238D01*
X159067381Y-110307380D01*
X159067381Y-110212142D01*
X159115000Y-110069285D01*
X159162619Y-110021666D01*
X159162619Y-109640714D02*
X159115000Y-109593095D01*
X159067381Y-109497857D01*
X159067381Y-109259761D01*
X159115000Y-109164523D01*
X159162619Y-109116904D01*
X159257857Y-109069285D01*
X159353095Y-109069285D01*
X159495952Y-109116904D01*
X160067381Y-109688333D01*
X160067381Y-109069285D01*
X164417143Y-110021666D02*
X164464762Y-110069285D01*
X164512381Y-110212142D01*
X164512381Y-110307380D01*
X164464762Y-110450238D01*
X164369524Y-110545476D01*
X164274286Y-110593095D01*
X164083810Y-110640714D01*
X163940952Y-110640714D01*
X163750476Y-110593095D01*
X163655238Y-110545476D01*
X163560000Y-110450238D01*
X163512381Y-110307380D01*
X163512381Y-110212142D01*
X163560000Y-110069285D01*
X163607619Y-110021666D01*
X163512381Y-109688333D02*
X163512381Y-109069285D01*
X163893333Y-109402619D01*
X163893333Y-109259761D01*
X163940952Y-109164523D01*
X163988571Y-109116904D01*
X164083810Y-109069285D01*
X164321905Y-109069285D01*
X164417143Y-109116904D01*
X164464762Y-109164523D01*
X164512381Y-109259761D01*
X164512381Y-109545476D01*
X164464762Y-109640714D01*
X164417143Y-109688333D01*
X171402143Y-110021666D02*
X171449762Y-110069285D01*
X171497381Y-110212142D01*
X171497381Y-110307380D01*
X171449762Y-110450238D01*
X171354524Y-110545476D01*
X171259286Y-110593095D01*
X171068810Y-110640714D01*
X170925952Y-110640714D01*
X170735476Y-110593095D01*
X170640238Y-110545476D01*
X170545000Y-110450238D01*
X170497381Y-110307380D01*
X170497381Y-110212142D01*
X170545000Y-110069285D01*
X170592619Y-110021666D01*
X170830714Y-109164523D02*
X171497381Y-109164523D01*
X170449762Y-109402619D02*
X171164048Y-109640714D01*
X171164048Y-109021666D01*
D14*
X164896800Y-115871171D02*
X164896800Y-116306600D01*
X164867772Y-116393686D01*
X164809715Y-116451743D01*
X164722629Y-116480771D01*
X164664572Y-116480771D01*
X165506400Y-116480771D02*
X165158057Y-116480771D01*
X165332229Y-116480771D02*
X165332229Y-115871171D01*
X165274172Y-115958257D01*
X165216114Y-116016314D01*
X165158057Y-116045343D01*
X162647087Y-112612714D02*
X162618058Y-112641743D01*
X162530972Y-112670771D01*
X162472915Y-112670771D01*
X162385830Y-112641743D01*
X162327772Y-112583686D01*
X162298744Y-112525629D01*
X162269715Y-112409514D01*
X162269715Y-112322429D01*
X162298744Y-112206314D01*
X162327772Y-112148257D01*
X162385830Y-112090200D01*
X162472915Y-112061171D01*
X162530972Y-112061171D01*
X162618058Y-112090200D01*
X162647087Y-112119229D01*
X163024458Y-112061171D02*
X163140572Y-112061171D01*
X163198630Y-112090200D01*
X163256687Y-112148257D01*
X163285715Y-112264371D01*
X163285715Y-112467571D01*
X163256687Y-112583686D01*
X163198630Y-112641743D01*
X163140572Y-112670771D01*
X163024458Y-112670771D01*
X162966401Y-112641743D01*
X162908344Y-112583686D01*
X162879315Y-112467571D01*
X162879315Y-112264371D01*
X162908344Y-112148257D01*
X162966401Y-112090200D01*
X163024458Y-112061171D01*
X163546973Y-112670771D02*
X163546973Y-112061171D01*
X163895316Y-112670771D01*
X163895316Y-112061171D01*
X164185602Y-112670771D02*
X164185602Y-112061171D01*
X164533945Y-112670771D01*
X164533945Y-112061171D01*
X164679088Y-112728829D02*
X165143545Y-112728829D01*
X165404802Y-112061171D02*
X165462859Y-112061171D01*
X165520916Y-112090200D01*
X165549945Y-112119229D01*
X165578974Y-112177286D01*
X165608002Y-112293400D01*
X165608002Y-112438543D01*
X165578974Y-112554657D01*
X165549945Y-112612714D01*
X165520916Y-112641743D01*
X165462859Y-112670771D01*
X165404802Y-112670771D01*
X165346745Y-112641743D01*
X165317716Y-112612714D01*
X165288688Y-112554657D01*
X165259659Y-112438543D01*
X165259659Y-112293400D01*
X165288688Y-112177286D01*
X165317716Y-112119229D01*
X165346745Y-112090200D01*
X165404802Y-112061171D01*
X166188573Y-112670771D02*
X165840230Y-112670771D01*
X166014402Y-112670771D02*
X166014402Y-112061171D01*
X165956345Y-112148257D01*
X165898287Y-112206314D01*
X165840230Y-112235343D01*
X166391773Y-112061171D02*
X166798173Y-112670771D01*
X166798173Y-112061171D02*
X166391773Y-112670771D01*
X167146515Y-112061171D02*
X167204572Y-112061171D01*
X167262629Y-112090200D01*
X167291658Y-112119229D01*
X167320687Y-112177286D01*
X167349715Y-112293400D01*
X167349715Y-112438543D01*
X167320687Y-112554657D01*
X167291658Y-112612714D01*
X167262629Y-112641743D01*
X167204572Y-112670771D01*
X167146515Y-112670771D01*
X167088458Y-112641743D01*
X167059429Y-112612714D01*
X167030401Y-112554657D01*
X167001372Y-112438543D01*
X167001372Y-112293400D01*
X167030401Y-112177286D01*
X167059429Y-112119229D01*
X167088458Y-112090200D01*
X167146515Y-112061171D01*
X167872229Y-112061171D02*
X167756115Y-112061171D01*
X167698058Y-112090200D01*
X167669029Y-112119229D01*
X167610972Y-112206314D01*
X167581943Y-112322429D01*
X167581943Y-112554657D01*
X167610972Y-112612714D01*
X167640000Y-112641743D01*
X167698058Y-112670771D01*
X167814172Y-112670771D01*
X167872229Y-112641743D01*
X167901258Y-112612714D01*
X167930286Y-112554657D01*
X167930286Y-112409514D01*
X167901258Y-112351457D01*
X167872229Y-112322429D01*
X167814172Y-112293400D01*
X167698058Y-112293400D01*
X167640000Y-112322429D01*
X167610972Y-112351457D01*
X167581943Y-112409514D01*
X149656800Y-103171171D02*
X149656800Y-103606600D01*
X149627772Y-103693686D01*
X149569715Y-103751743D01*
X149482629Y-103780771D01*
X149424572Y-103780771D01*
X149918057Y-103229229D02*
X149947086Y-103200200D01*
X150005143Y-103171171D01*
X150150286Y-103171171D01*
X150208343Y-103200200D01*
X150237372Y-103229229D01*
X150266400Y-103287286D01*
X150266400Y-103345343D01*
X150237372Y-103432429D01*
X149889029Y-103780771D01*
X150266400Y-103780771D01*
X147407087Y-99912714D02*
X147378058Y-99941743D01*
X147290972Y-99970771D01*
X147232915Y-99970771D01*
X147145830Y-99941743D01*
X147087772Y-99883686D01*
X147058744Y-99825629D01*
X147029715Y-99709514D01*
X147029715Y-99622429D01*
X147058744Y-99506314D01*
X147087772Y-99448257D01*
X147145830Y-99390200D01*
X147232915Y-99361171D01*
X147290972Y-99361171D01*
X147378058Y-99390200D01*
X147407087Y-99419229D01*
X147784458Y-99361171D02*
X147900572Y-99361171D01*
X147958630Y-99390200D01*
X148016687Y-99448257D01*
X148045715Y-99564371D01*
X148045715Y-99767571D01*
X148016687Y-99883686D01*
X147958630Y-99941743D01*
X147900572Y-99970771D01*
X147784458Y-99970771D01*
X147726401Y-99941743D01*
X147668344Y-99883686D01*
X147639315Y-99767571D01*
X147639315Y-99564371D01*
X147668344Y-99448257D01*
X147726401Y-99390200D01*
X147784458Y-99361171D01*
X148306973Y-99970771D02*
X148306973Y-99361171D01*
X148655316Y-99970771D01*
X148655316Y-99361171D01*
X148945602Y-99970771D02*
X148945602Y-99361171D01*
X149293945Y-99970771D01*
X149293945Y-99361171D01*
X149439088Y-100028829D02*
X149903545Y-100028829D01*
X150164802Y-99361171D02*
X150222859Y-99361171D01*
X150280916Y-99390200D01*
X150309945Y-99419229D01*
X150338974Y-99477286D01*
X150368002Y-99593400D01*
X150368002Y-99738543D01*
X150338974Y-99854657D01*
X150309945Y-99912714D01*
X150280916Y-99941743D01*
X150222859Y-99970771D01*
X150164802Y-99970771D01*
X150106745Y-99941743D01*
X150077716Y-99912714D01*
X150048688Y-99854657D01*
X150019659Y-99738543D01*
X150019659Y-99593400D01*
X150048688Y-99477286D01*
X150077716Y-99419229D01*
X150106745Y-99390200D01*
X150164802Y-99361171D01*
X150948573Y-99970771D02*
X150600230Y-99970771D01*
X150774402Y-99970771D02*
X150774402Y-99361171D01*
X150716345Y-99448257D01*
X150658287Y-99506314D01*
X150600230Y-99535343D01*
X151151773Y-99361171D02*
X151558173Y-99970771D01*
X151558173Y-99361171D02*
X151151773Y-99970771D01*
X151906515Y-99361171D02*
X151964572Y-99361171D01*
X152022629Y-99390200D01*
X152051658Y-99419229D01*
X152080687Y-99477286D01*
X152109715Y-99593400D01*
X152109715Y-99738543D01*
X152080687Y-99854657D01*
X152051658Y-99912714D01*
X152022629Y-99941743D01*
X151964572Y-99970771D01*
X151906515Y-99970771D01*
X151848458Y-99941743D01*
X151819429Y-99912714D01*
X151790401Y-99854657D01*
X151761372Y-99738543D01*
X151761372Y-99593400D01*
X151790401Y-99477286D01*
X151819429Y-99419229D01*
X151848458Y-99390200D01*
X151906515Y-99361171D01*
X152312915Y-99361171D02*
X152690286Y-99361171D01*
X152487086Y-99593400D01*
X152574172Y-99593400D01*
X152632229Y-99622429D01*
X152661258Y-99651457D01*
X152690286Y-99709514D01*
X152690286Y-99854657D01*
X152661258Y-99912714D01*
X152632229Y-99941743D01*
X152574172Y-99970771D01*
X152400000Y-99970771D01*
X152341943Y-99941743D01*
X152312915Y-99912714D01*
X157276800Y-103171171D02*
X157276800Y-103606600D01*
X157247772Y-103693686D01*
X157189715Y-103751743D01*
X157102629Y-103780771D01*
X157044572Y-103780771D01*
X157509029Y-103171171D02*
X157886400Y-103171171D01*
X157683200Y-103403400D01*
X157770286Y-103403400D01*
X157828343Y-103432429D01*
X157857372Y-103461457D01*
X157886400Y-103519514D01*
X157886400Y-103664657D01*
X157857372Y-103722714D01*
X157828343Y-103751743D01*
X157770286Y-103780771D01*
X157596114Y-103780771D01*
X157538057Y-103751743D01*
X157509029Y-103722714D01*
X155027087Y-99912714D02*
X154998058Y-99941743D01*
X154910972Y-99970771D01*
X154852915Y-99970771D01*
X154765830Y-99941743D01*
X154707772Y-99883686D01*
X154678744Y-99825629D01*
X154649715Y-99709514D01*
X154649715Y-99622429D01*
X154678744Y-99506314D01*
X154707772Y-99448257D01*
X154765830Y-99390200D01*
X154852915Y-99361171D01*
X154910972Y-99361171D01*
X154998058Y-99390200D01*
X155027087Y-99419229D01*
X155404458Y-99361171D02*
X155520572Y-99361171D01*
X155578630Y-99390200D01*
X155636687Y-99448257D01*
X155665715Y-99564371D01*
X155665715Y-99767571D01*
X155636687Y-99883686D01*
X155578630Y-99941743D01*
X155520572Y-99970771D01*
X155404458Y-99970771D01*
X155346401Y-99941743D01*
X155288344Y-99883686D01*
X155259315Y-99767571D01*
X155259315Y-99564371D01*
X155288344Y-99448257D01*
X155346401Y-99390200D01*
X155404458Y-99361171D01*
X155926973Y-99970771D02*
X155926973Y-99361171D01*
X156275316Y-99970771D01*
X156275316Y-99361171D01*
X156565602Y-99970771D02*
X156565602Y-99361171D01*
X156913945Y-99970771D01*
X156913945Y-99361171D01*
X157059088Y-100028829D02*
X157523545Y-100028829D01*
X157784802Y-99361171D02*
X157842859Y-99361171D01*
X157900916Y-99390200D01*
X157929945Y-99419229D01*
X157958974Y-99477286D01*
X157988002Y-99593400D01*
X157988002Y-99738543D01*
X157958974Y-99854657D01*
X157929945Y-99912714D01*
X157900916Y-99941743D01*
X157842859Y-99970771D01*
X157784802Y-99970771D01*
X157726745Y-99941743D01*
X157697716Y-99912714D01*
X157668688Y-99854657D01*
X157639659Y-99738543D01*
X157639659Y-99593400D01*
X157668688Y-99477286D01*
X157697716Y-99419229D01*
X157726745Y-99390200D01*
X157784802Y-99361171D01*
X158568573Y-99970771D02*
X158220230Y-99970771D01*
X158394402Y-99970771D02*
X158394402Y-99361171D01*
X158336345Y-99448257D01*
X158278287Y-99506314D01*
X158220230Y-99535343D01*
X158771773Y-99361171D02*
X159178173Y-99970771D01*
X159178173Y-99361171D02*
X158771773Y-99970771D01*
X159526515Y-99361171D02*
X159584572Y-99361171D01*
X159642629Y-99390200D01*
X159671658Y-99419229D01*
X159700687Y-99477286D01*
X159729715Y-99593400D01*
X159729715Y-99738543D01*
X159700687Y-99854657D01*
X159671658Y-99912714D01*
X159642629Y-99941743D01*
X159584572Y-99970771D01*
X159526515Y-99970771D01*
X159468458Y-99941743D01*
X159439429Y-99912714D01*
X159410401Y-99854657D01*
X159381372Y-99738543D01*
X159381372Y-99593400D01*
X159410401Y-99477286D01*
X159439429Y-99419229D01*
X159468458Y-99390200D01*
X159526515Y-99361171D01*
X159932915Y-99361171D02*
X160310286Y-99361171D01*
X160107086Y-99593400D01*
X160194172Y-99593400D01*
X160252229Y-99622429D01*
X160281258Y-99651457D01*
X160310286Y-99709514D01*
X160310286Y-99854657D01*
X160281258Y-99912714D01*
X160252229Y-99941743D01*
X160194172Y-99970771D01*
X160020000Y-99970771D01*
X159961943Y-99941743D01*
X159932915Y-99912714D01*
X164896800Y-103171171D02*
X164896800Y-103606600D01*
X164867772Y-103693686D01*
X164809715Y-103751743D01*
X164722629Y-103780771D01*
X164664572Y-103780771D01*
X165448343Y-103374371D02*
X165448343Y-103780771D01*
X165303200Y-103142143D02*
X165158057Y-103577571D01*
X165535429Y-103577571D01*
X162647087Y-99912714D02*
X162618058Y-99941743D01*
X162530972Y-99970771D01*
X162472915Y-99970771D01*
X162385830Y-99941743D01*
X162327772Y-99883686D01*
X162298744Y-99825629D01*
X162269715Y-99709514D01*
X162269715Y-99622429D01*
X162298744Y-99506314D01*
X162327772Y-99448257D01*
X162385830Y-99390200D01*
X162472915Y-99361171D01*
X162530972Y-99361171D01*
X162618058Y-99390200D01*
X162647087Y-99419229D01*
X163024458Y-99361171D02*
X163140572Y-99361171D01*
X163198630Y-99390200D01*
X163256687Y-99448257D01*
X163285715Y-99564371D01*
X163285715Y-99767571D01*
X163256687Y-99883686D01*
X163198630Y-99941743D01*
X163140572Y-99970771D01*
X163024458Y-99970771D01*
X162966401Y-99941743D01*
X162908344Y-99883686D01*
X162879315Y-99767571D01*
X162879315Y-99564371D01*
X162908344Y-99448257D01*
X162966401Y-99390200D01*
X163024458Y-99361171D01*
X163546973Y-99970771D02*
X163546973Y-99361171D01*
X163895316Y-99970771D01*
X163895316Y-99361171D01*
X164185602Y-99970771D02*
X164185602Y-99361171D01*
X164533945Y-99970771D01*
X164533945Y-99361171D01*
X164679088Y-100028829D02*
X165143545Y-100028829D01*
X165404802Y-99361171D02*
X165462859Y-99361171D01*
X165520916Y-99390200D01*
X165549945Y-99419229D01*
X165578974Y-99477286D01*
X165608002Y-99593400D01*
X165608002Y-99738543D01*
X165578974Y-99854657D01*
X165549945Y-99912714D01*
X165520916Y-99941743D01*
X165462859Y-99970771D01*
X165404802Y-99970771D01*
X165346745Y-99941743D01*
X165317716Y-99912714D01*
X165288688Y-99854657D01*
X165259659Y-99738543D01*
X165259659Y-99593400D01*
X165288688Y-99477286D01*
X165317716Y-99419229D01*
X165346745Y-99390200D01*
X165404802Y-99361171D01*
X166188573Y-99970771D02*
X165840230Y-99970771D01*
X166014402Y-99970771D02*
X166014402Y-99361171D01*
X165956345Y-99448257D01*
X165898287Y-99506314D01*
X165840230Y-99535343D01*
X166391773Y-99361171D02*
X166798173Y-99970771D01*
X166798173Y-99361171D02*
X166391773Y-99970771D01*
X167146515Y-99361171D02*
X167204572Y-99361171D01*
X167262629Y-99390200D01*
X167291658Y-99419229D01*
X167320687Y-99477286D01*
X167349715Y-99593400D01*
X167349715Y-99738543D01*
X167320687Y-99854657D01*
X167291658Y-99912714D01*
X167262629Y-99941743D01*
X167204572Y-99970771D01*
X167146515Y-99970771D01*
X167088458Y-99941743D01*
X167059429Y-99912714D01*
X167030401Y-99854657D01*
X167001372Y-99738543D01*
X167001372Y-99593400D01*
X167030401Y-99477286D01*
X167059429Y-99419229D01*
X167088458Y-99390200D01*
X167146515Y-99361171D01*
X167552915Y-99361171D02*
X167930286Y-99361171D01*
X167727086Y-99593400D01*
X167814172Y-99593400D01*
X167872229Y-99622429D01*
X167901258Y-99651457D01*
X167930286Y-99709514D01*
X167930286Y-99854657D01*
X167901258Y-99912714D01*
X167872229Y-99941743D01*
X167814172Y-99970771D01*
X167640000Y-99970771D01*
X167581943Y-99941743D01*
X167552915Y-99912714D01*
X172516800Y-103171171D02*
X172516800Y-103606600D01*
X172487772Y-103693686D01*
X172429715Y-103751743D01*
X172342629Y-103780771D01*
X172284572Y-103780771D01*
X173097372Y-103171171D02*
X172807086Y-103171171D01*
X172778057Y-103461457D01*
X172807086Y-103432429D01*
X172865143Y-103403400D01*
X173010286Y-103403400D01*
X173068343Y-103432429D01*
X173097372Y-103461457D01*
X173126400Y-103519514D01*
X173126400Y-103664657D01*
X173097372Y-103722714D01*
X173068343Y-103751743D01*
X173010286Y-103780771D01*
X172865143Y-103780771D01*
X172807086Y-103751743D01*
X172778057Y-103722714D01*
X170267087Y-99912714D02*
X170238058Y-99941743D01*
X170150972Y-99970771D01*
X170092915Y-99970771D01*
X170005830Y-99941743D01*
X169947772Y-99883686D01*
X169918744Y-99825629D01*
X169889715Y-99709514D01*
X169889715Y-99622429D01*
X169918744Y-99506314D01*
X169947772Y-99448257D01*
X170005830Y-99390200D01*
X170092915Y-99361171D01*
X170150972Y-99361171D01*
X170238058Y-99390200D01*
X170267087Y-99419229D01*
X170644458Y-99361171D02*
X170760572Y-99361171D01*
X170818630Y-99390200D01*
X170876687Y-99448257D01*
X170905715Y-99564371D01*
X170905715Y-99767571D01*
X170876687Y-99883686D01*
X170818630Y-99941743D01*
X170760572Y-99970771D01*
X170644458Y-99970771D01*
X170586401Y-99941743D01*
X170528344Y-99883686D01*
X170499315Y-99767571D01*
X170499315Y-99564371D01*
X170528344Y-99448257D01*
X170586401Y-99390200D01*
X170644458Y-99361171D01*
X171166973Y-99970771D02*
X171166973Y-99361171D01*
X171515316Y-99970771D01*
X171515316Y-99361171D01*
X171805602Y-99970771D02*
X171805602Y-99361171D01*
X172153945Y-99970771D01*
X172153945Y-99361171D01*
X172299088Y-100028829D02*
X172763545Y-100028829D01*
X173024802Y-99361171D02*
X173082859Y-99361171D01*
X173140916Y-99390200D01*
X173169945Y-99419229D01*
X173198974Y-99477286D01*
X173228002Y-99593400D01*
X173228002Y-99738543D01*
X173198974Y-99854657D01*
X173169945Y-99912714D01*
X173140916Y-99941743D01*
X173082859Y-99970771D01*
X173024802Y-99970771D01*
X172966745Y-99941743D01*
X172937716Y-99912714D01*
X172908688Y-99854657D01*
X172879659Y-99738543D01*
X172879659Y-99593400D01*
X172908688Y-99477286D01*
X172937716Y-99419229D01*
X172966745Y-99390200D01*
X173024802Y-99361171D01*
X173808573Y-99970771D02*
X173460230Y-99970771D01*
X173634402Y-99970771D02*
X173634402Y-99361171D01*
X173576345Y-99448257D01*
X173518287Y-99506314D01*
X173460230Y-99535343D01*
X174011773Y-99361171D02*
X174418173Y-99970771D01*
X174418173Y-99361171D02*
X174011773Y-99970771D01*
X174766515Y-99361171D02*
X174824572Y-99361171D01*
X174882629Y-99390200D01*
X174911658Y-99419229D01*
X174940687Y-99477286D01*
X174969715Y-99593400D01*
X174969715Y-99738543D01*
X174940687Y-99854657D01*
X174911658Y-99912714D01*
X174882629Y-99941743D01*
X174824572Y-99970771D01*
X174766515Y-99970771D01*
X174708458Y-99941743D01*
X174679429Y-99912714D01*
X174650401Y-99854657D01*
X174621372Y-99738543D01*
X174621372Y-99593400D01*
X174650401Y-99477286D01*
X174679429Y-99419229D01*
X174708458Y-99390200D01*
X174766515Y-99361171D01*
X175172915Y-99361171D02*
X175550286Y-99361171D01*
X175347086Y-99593400D01*
X175434172Y-99593400D01*
X175492229Y-99622429D01*
X175521258Y-99651457D01*
X175550286Y-99709514D01*
X175550286Y-99854657D01*
X175521258Y-99912714D01*
X175492229Y-99941743D01*
X175434172Y-99970771D01*
X175260000Y-99970771D01*
X175201943Y-99941743D01*
X175172915Y-99912714D01*
D13*
X147517381Y-106211666D02*
X147041190Y-106545000D01*
X147517381Y-106783095D02*
X146517381Y-106783095D01*
X146517381Y-106402142D01*
X146565000Y-106306904D01*
X146612619Y-106259285D01*
X146707857Y-106211666D01*
X146850714Y-106211666D01*
X146945952Y-106259285D01*
X146993571Y-106306904D01*
X147041190Y-106402142D01*
X147041190Y-106783095D01*
X147517381Y-105259285D02*
X147517381Y-105830714D01*
X147517381Y-105545000D02*
X146517381Y-105545000D01*
X146660238Y-105640238D01*
X146755476Y-105735476D01*
X146803095Y-105830714D01*
X147517381Y-110021666D02*
X147041190Y-110355000D01*
X147517381Y-110593095D02*
X146517381Y-110593095D01*
X146517381Y-110212142D01*
X146565000Y-110116904D01*
X146612619Y-110069285D01*
X146707857Y-110021666D01*
X146850714Y-110021666D01*
X146945952Y-110069285D01*
X146993571Y-110116904D01*
X147041190Y-110212142D01*
X147041190Y-110593095D01*
X146612619Y-109640714D02*
X146565000Y-109593095D01*
X146517381Y-109497857D01*
X146517381Y-109259761D01*
X146565000Y-109164523D01*
X146612619Y-109116904D01*
X146707857Y-109069285D01*
X146803095Y-109069285D01*
X146945952Y-109116904D01*
X147517381Y-109688333D01*
X147517381Y-109069285D01*
X156407381Y-106211666D02*
X155931190Y-106545000D01*
X156407381Y-106783095D02*
X155407381Y-106783095D01*
X155407381Y-106402142D01*
X155455000Y-106306904D01*
X155502619Y-106259285D01*
X155597857Y-106211666D01*
X155740714Y-106211666D01*
X155835952Y-106259285D01*
X155883571Y-106306904D01*
X155931190Y-106402142D01*
X155931190Y-106783095D01*
X155407381Y-105878333D02*
X155407381Y-105259285D01*
X155788333Y-105592619D01*
X155788333Y-105449761D01*
X155835952Y-105354523D01*
X155883571Y-105306904D01*
X155978810Y-105259285D01*
X156216905Y-105259285D01*
X156312143Y-105306904D01*
X156359762Y-105354523D01*
X156407381Y-105449761D01*
X156407381Y-105735476D01*
X156359762Y-105830714D01*
X156312143Y-105878333D01*
X156407381Y-110021666D02*
X155931190Y-110355000D01*
X156407381Y-110593095D02*
X155407381Y-110593095D01*
X155407381Y-110212142D01*
X155455000Y-110116904D01*
X155502619Y-110069285D01*
X155597857Y-110021666D01*
X155740714Y-110021666D01*
X155835952Y-110069285D01*
X155883571Y-110116904D01*
X155931190Y-110212142D01*
X155931190Y-110593095D01*
X155740714Y-109164523D02*
X156407381Y-109164523D01*
X155359762Y-109402619D02*
X156074048Y-109640714D01*
X156074048Y-109021666D01*
X164662381Y-106211666D02*
X164186190Y-106545000D01*
X164662381Y-106783095D02*
X163662381Y-106783095D01*
X163662381Y-106402142D01*
X163710000Y-106306904D01*
X163757619Y-106259285D01*
X163852857Y-106211666D01*
X163995714Y-106211666D01*
X164090952Y-106259285D01*
X164138571Y-106306904D01*
X164186190Y-106402142D01*
X164186190Y-106783095D01*
X163662381Y-105306904D02*
X163662381Y-105783095D01*
X164138571Y-105830714D01*
X164090952Y-105783095D01*
X164043333Y-105687857D01*
X164043333Y-105449761D01*
X164090952Y-105354523D01*
X164138571Y-105306904D01*
X164233810Y-105259285D01*
X164471905Y-105259285D01*
X164567143Y-105306904D01*
X164614762Y-105354523D01*
X164662381Y-105449761D01*
X164662381Y-105687857D01*
X164614762Y-105783095D01*
X164567143Y-105830714D01*
X168472381Y-110021666D02*
X167996190Y-110355000D01*
X168472381Y-110593095D02*
X167472381Y-110593095D01*
X167472381Y-110212142D01*
X167520000Y-110116904D01*
X167567619Y-110069285D01*
X167662857Y-110021666D01*
X167805714Y-110021666D01*
X167900952Y-110069285D01*
X167948571Y-110116904D01*
X167996190Y-110212142D01*
X167996190Y-110593095D01*
X167472381Y-109164523D02*
X167472381Y-109355000D01*
X167520000Y-109450238D01*
X167567619Y-109497857D01*
X167710476Y-109593095D01*
X167900952Y-109640714D01*
X168281905Y-109640714D01*
X168377143Y-109593095D01*
X168424762Y-109545476D01*
X168472381Y-109450238D01*
X168472381Y-109259761D01*
X168424762Y-109164523D01*
X168377143Y-109116904D01*
X168281905Y-109069285D01*
X168043810Y-109069285D01*
X167948571Y-109116904D01*
X167900952Y-109164523D01*
X167853333Y-109259761D01*
X167853333Y-109450238D01*
X167900952Y-109545476D01*
X167948571Y-109593095D01*
X168043810Y-109640714D01*
X172282381Y-105576666D02*
X171806190Y-105910000D01*
X172282381Y-106148095D02*
X171282381Y-106148095D01*
X171282381Y-105767142D01*
X171330000Y-105671904D01*
X171377619Y-105624285D01*
X171472857Y-105576666D01*
X171615714Y-105576666D01*
X171710952Y-105624285D01*
X171758571Y-105671904D01*
X171806190Y-105767142D01*
X171806190Y-106148095D01*
X171282381Y-105243333D02*
X171282381Y-104576666D01*
X172282381Y-105005238D01*
X174187381Y-110021666D02*
X173711190Y-110355000D01*
X174187381Y-110593095D02*
X173187381Y-110593095D01*
X173187381Y-110212142D01*
X173235000Y-110116904D01*
X173282619Y-110069285D01*
X173377857Y-110021666D01*
X173520714Y-110021666D01*
X173615952Y-110069285D01*
X173663571Y-110116904D01*
X173711190Y-110212142D01*
X173711190Y-110593095D01*
X173615952Y-109450238D02*
X173568333Y-109545476D01*
X173520714Y-109593095D01*
X173425476Y-109640714D01*
X173377857Y-109640714D01*
X173282619Y-109593095D01*
X173235000Y-109545476D01*
X173187381Y-109450238D01*
X173187381Y-109259761D01*
X173235000Y-109164523D01*
X173282619Y-109116904D01*
X173377857Y-109069285D01*
X173425476Y-109069285D01*
X173520714Y-109116904D01*
X173568333Y-109164523D01*
X173615952Y-109259761D01*
X173615952Y-109450238D01*
X173663571Y-109545476D01*
X173711190Y-109593095D01*
X173806429Y-109640714D01*
X173996905Y-109640714D01*
X174092143Y-109593095D01*
X174139762Y-109545476D01*
X174187381Y-109450238D01*
X174187381Y-109259761D01*
X174139762Y-109164523D01*
X174092143Y-109116904D01*
X173996905Y-109069285D01*
X173806429Y-109069285D01*
X173711190Y-109116904D01*
X173663571Y-109164523D01*
X173615952Y-109259761D01*
M02*
