G04 #@! TF.FileFunction,Copper,L1,Top,Signal*
%FSLAX46Y46*%
G04 Gerber Fmt 4.6, Leading zero omitted, Abs format (unit mm)*
G04 Created by KiCad (PCBNEW 4.0.6) date Wednesday, December 20, 2017 'PMt' 01:59:56 PM*
%MOMM*%
%LPD*%
G01*
G04 APERTURE LIST*
%ADD10C,0.100000*%
%ADD11R,1.250000X1.000000*%
%ADD12C,1.879600*%
%ADD13R,1.300000X0.700000*%
%ADD14C,0.600000*%
%ADD15C,0.250000*%
G04 APERTURE END LIST*
D10*
D11*
X149225000Y-108855000D03*
X149225000Y-110855000D03*
X158115000Y-108855000D03*
X158115000Y-110855000D03*
X162560000Y-108855000D03*
X162560000Y-110855000D03*
X169545000Y-108855000D03*
X169545000Y-110855000D03*
D12*
X165100000Y-114300000D03*
X162560000Y-114300000D03*
X160020000Y-114300000D03*
X157480000Y-114300000D03*
X154940000Y-114300000D03*
X152400000Y-114300000D03*
X149860000Y-101600000D03*
X147320000Y-101600000D03*
X144780000Y-101600000D03*
X157480000Y-101600000D03*
X154940000Y-101600000D03*
X152400000Y-101600000D03*
X165100000Y-101600000D03*
X162560000Y-101600000D03*
X160020000Y-101600000D03*
X172720000Y-101600000D03*
X170180000Y-101600000D03*
X167640000Y-101600000D03*
D13*
X145415000Y-105095000D03*
X145415000Y-106995000D03*
X145415000Y-108905000D03*
X145415000Y-110805000D03*
X154305000Y-105095000D03*
X154305000Y-106995000D03*
X154305000Y-108905000D03*
X154305000Y-110805000D03*
X162560000Y-105095000D03*
X162560000Y-106995000D03*
X166370000Y-108905000D03*
X166370000Y-110805000D03*
X170180000Y-104460000D03*
X170180000Y-106360000D03*
X172085000Y-108905000D03*
X172085000Y-110805000D03*
D14*
X160655000Y-107950000D03*
X168275000Y-107950000D03*
X148590000Y-105410000D03*
X147320000Y-113665000D03*
X170815000Y-113030000D03*
X163830000Y-112395000D03*
X158750000Y-112395000D03*
X147320000Y-111760000D03*
X149225000Y-113030000D03*
D15*
X157480000Y-114300000D02*
X154940000Y-111760000D01*
X150765000Y-108855000D02*
X149225000Y-108855000D01*
X151130000Y-109220000D02*
X150765000Y-108855000D01*
X151130000Y-110490000D02*
X151130000Y-109220000D01*
X152400000Y-111760000D02*
X151130000Y-110490000D01*
X154940000Y-111760000D02*
X152400000Y-111760000D01*
X157480000Y-114300000D02*
X157480000Y-113665000D01*
X150130000Y-108855000D02*
X149225000Y-108855000D01*
X149225000Y-108855000D02*
X145465000Y-108855000D01*
X145465000Y-108855000D02*
X145415000Y-108905000D01*
X145415000Y-106995000D02*
X145415000Y-108905000D01*
X160020000Y-101600000D02*
X160020000Y-107315000D01*
X160020000Y-107315000D02*
X160655000Y-107950000D01*
X167640000Y-101600000D02*
X167640000Y-107315000D01*
X167640000Y-107315000D02*
X168275000Y-107950000D01*
X152400000Y-101600000D02*
X148590000Y-105410000D01*
X152400000Y-114300000D02*
X147955000Y-114300000D01*
X147955000Y-114300000D02*
X147320000Y-113665000D01*
X169545000Y-110855000D02*
X172035000Y-110855000D01*
X172035000Y-110855000D02*
X170815000Y-112075000D01*
X170815000Y-112075000D02*
X170815000Y-113030000D01*
X164465000Y-110855000D02*
X164465000Y-111760000D01*
X164465000Y-111760000D02*
X163830000Y-112395000D01*
X162560000Y-110855000D02*
X164465000Y-110855000D01*
X164465000Y-110855000D02*
X166320000Y-110855000D01*
X166320000Y-110855000D02*
X166370000Y-110805000D01*
X158115000Y-110855000D02*
X158115000Y-111760000D01*
X158115000Y-111760000D02*
X158750000Y-112395000D01*
X154305000Y-110805000D02*
X158065000Y-110805000D01*
X158065000Y-110805000D02*
X158115000Y-110855000D01*
X147320000Y-110855000D02*
X147320000Y-111760000D01*
X149225000Y-110855000D02*
X147320000Y-110855000D01*
X147320000Y-110855000D02*
X145465000Y-110855000D01*
X145465000Y-110855000D02*
X145415000Y-110805000D01*
X158115000Y-108855000D02*
X159020000Y-108855000D01*
X160020000Y-109855000D02*
X160020000Y-114300000D01*
X159020000Y-108855000D02*
X160020000Y-109855000D01*
X154305000Y-106995000D02*
X154305000Y-108905000D01*
X158115000Y-108855000D02*
X154355000Y-108855000D01*
X154355000Y-108855000D02*
X154305000Y-108905000D01*
X162560000Y-108855000D02*
X162290000Y-108855000D01*
X162290000Y-108855000D02*
X161290000Y-109855000D01*
X161290000Y-113030000D02*
X162560000Y-114300000D01*
X161290000Y-109855000D02*
X161290000Y-113030000D01*
X162560000Y-106995000D02*
X162560000Y-108855000D01*
X166370000Y-108905000D02*
X162610000Y-108905000D01*
X162610000Y-108905000D02*
X162560000Y-108855000D01*
X169545000Y-108855000D02*
X168640000Y-108855000D01*
X168275000Y-111125000D02*
X165100000Y-114300000D01*
X168275000Y-109220000D02*
X168275000Y-111125000D01*
X168640000Y-108855000D02*
X168275000Y-109220000D01*
X172085000Y-108905000D02*
X169595000Y-108905000D01*
X169595000Y-108905000D02*
X169545000Y-108855000D01*
X170180000Y-106360000D02*
X170180000Y-108220000D01*
X170180000Y-108220000D02*
X169545000Y-108855000D01*
X154940000Y-114300000D02*
X153035000Y-112395000D01*
X149860000Y-112395000D02*
X149225000Y-113030000D01*
X153035000Y-112395000D02*
X149860000Y-112395000D01*
X145415000Y-105095000D02*
X145415000Y-103505000D01*
X145415000Y-103505000D02*
X147320000Y-101600000D01*
X154305000Y-105095000D02*
X155575000Y-100965000D01*
X155575000Y-100965000D02*
X154940000Y-101600000D01*
X162560000Y-105095000D02*
X162560000Y-101600000D01*
X170180000Y-104460000D02*
X170180000Y-101600000D01*
M02*
