G04 #@! TF.FileFunction,Soldermask,Top*
%FSLAX46Y46*%
G04 Gerber Fmt 4.6, Leading zero omitted, Abs format (unit mm)*
G04 Created by KiCad (PCBNEW 4.0.6) date Wednesday, December 20, 2017 'PMt' 01:59:56 PM*
%MOMM*%
%LPD*%
G01*
G04 APERTURE LIST*
%ADD10C,0.100000*%
%ADD11R,1.650000X1.400000*%
%ADD12C,2.082800*%
%ADD13R,1.700000X1.100000*%
G04 APERTURE END LIST*
D10*
D11*
X149225000Y-108855000D03*
X149225000Y-110855000D03*
X158115000Y-108855000D03*
X158115000Y-110855000D03*
X162560000Y-108855000D03*
X162560000Y-110855000D03*
X169545000Y-108855000D03*
X169545000Y-110855000D03*
D12*
X165100000Y-114300000D03*
X162560000Y-114300000D03*
X160020000Y-114300000D03*
X157480000Y-114300000D03*
X154940000Y-114300000D03*
X152400000Y-114300000D03*
X149860000Y-101600000D03*
X147320000Y-101600000D03*
X144780000Y-101600000D03*
X157480000Y-101600000D03*
X154940000Y-101600000D03*
X152400000Y-101600000D03*
X165100000Y-101600000D03*
X162560000Y-101600000D03*
X160020000Y-101600000D03*
X172720000Y-101600000D03*
X170180000Y-101600000D03*
X167640000Y-101600000D03*
D13*
X145415000Y-105095000D03*
X145415000Y-106995000D03*
X145415000Y-108905000D03*
X145415000Y-110805000D03*
X154305000Y-105095000D03*
X154305000Y-106995000D03*
X154305000Y-108905000D03*
X154305000Y-110805000D03*
X162560000Y-105095000D03*
X162560000Y-106995000D03*
X166370000Y-108905000D03*
X166370000Y-110805000D03*
X170180000Y-104460000D03*
X170180000Y-106360000D03*
X172085000Y-108905000D03*
X172085000Y-110805000D03*
M02*
